<svg width="42" height="59" viewBox="0 0 42 59" fill="none" xmlns="http://www.w3.org/2000/svg">
<path d="M0 0.372681H5.26019L9.40166 11.7576L13.5357 0.372681H18.8033V26.3286H14.0617V7.41702L10.7204 17.4282H8.08291L4.73417 7.41702V26.3286H0V0.372681Z" fill="white"/>
<path d="M22.4484 13.3506C22.4484 4.6329 26.3602 0 32.5613 0C38.0882 0 41.2073 3.78524 42 8.49121L36.6953 9.41925C36.3545 6.34283 34.6283 4.66943 32.4057 4.66943C30.1831 4.66943 27.4789 6.22591 27.4789 13.2337C27.4789 20.2415 30.2275 22.0245 32.4798 22.0245C34.5839 22.0245 36.3916 20.395 36.6879 17.2747L41.9926 18.2028C41.2443 22.916 38.0808 26.694 32.5539 26.694C26.3528 26.694 22.441 22.0611 22.441 13.3433" fill="white"/>
<path d="M7.631 46.6505C10.6019 44.3121 12.4467 42.7922 12.4467 40.4976C12.4467 38.4954 11.0168 37.4212 9.21647 37.4212C7.22352 37.4212 5.71956 38.5685 5.30467 41.4988L0.22229 39.9788C0.859439 34.7906 4.77124 32.2987 9.2461 32.2987C13.721 32.2987 17.7439 34.9294 17.7439 40.3077C17.7439 45.1305 14.736 47.5055 11.8392 49.7269C8.94235 51.9557 7.47542 53.1395 6.91236 54.031H18.0402V59H0.674222C0.674222 53.2491 2.66717 50.5453 7.631 46.6505Z" fill="white"/>
<path d="M30.0424 43.0552C30.0424 41.1626 31.6204 39.6061 33.5393 39.6061C35.4581 39.6061 37.0362 41.1626 37.0362 43.0552C37.0362 44.9479 35.4952 46.5043 33.5393 46.5043C31.5834 46.5043 30.0424 44.9479 30.0424 43.0552Z" fill="white"/>
<path d="M30.0424 54.9225C30.0424 53.0299 31.6204 51.4734 33.5393 51.4734C35.4581 51.4734 37.0362 53.0299 37.0362 54.9225C37.0362 56.8151 35.4952 58.3716 33.5393 58.3716C31.5834 58.3716 30.0424 56.8151 30.0424 54.9225Z" fill="white"/>
</svg>
  