<svg width="18" height="18" viewBox="0 0 18 18" fill="none" xmlns="http://www.w3.org/2000/svg">
<path d="M12.9967 12.1075C14.1437 10.7246 14.7138 8.95193 14.5882 7.15861C14.4626 5.36529 13.651 3.68964 12.3225 2.48073C10.994 1.27182 9.25095 0.622861 7.45655 0.669055C5.66216 0.71525 3.95474 1.45303 2.68998 2.7287C1.42523 4.00437 0.700669 5.71957 0.667227 7.51699C0.633785 9.31441 1.29407 11.0554 2.51049 12.3774C3.72691 13.6994 5.40568 14.5004 7.1971 14.6135C8.98853 14.7266 10.7545 14.1431 12.1271 12.9846L16.4568 17.3334L17.3327 16.4501L12.9967 12.1075ZM7.64305 13.3862C6.5083 13.3874 5.39867 13.0515 4.45457 12.421C3.51047 11.7905 2.77434 10.8937 2.33924 9.84406C1.90415 8.79443 1.78967 7.63915 2.0103 6.52435C2.23093 5.40956 2.77672 4.38535 3.57868 3.5813C4.38063 2.77725 5.40272 2.2295 6.51557 2.00733C7.62843 1.78516 8.78206 1.89856 9.83054 2.3332C10.879 2.76783 11.7753 3.50415 12.4058 4.44902C13.0364 5.39388 13.3729 6.50484 13.3729 7.64132C13.3729 9.16388 12.7695 10.6242 11.6951 11.7013C10.6207 12.7785 9.16328 13.3845 7.64305 13.3862Z" fill="white"/>
</svg>
