<svg width="17" height="19" viewBox="0 0 17 19" fill="none" xmlns="http://www.w3.org/2000/svg">
<path d="M14.2278 4.01016C14.1012 3.94475 13.978 3.87304 13.8586 3.79531C13.5115 3.5658 13.1932 3.29537 12.9106 2.98984C12.2036 2.18086 11.9395 1.36016 11.8422 0.785547H11.8461C11.7649 0.308594 11.7985 0 11.8036 0H8.58324V12.4523C8.58324 12.6195 8.58324 12.7848 8.57621 12.948C8.57621 12.9684 8.57426 12.9871 8.57308 13.009C8.57308 13.018 8.57308 13.0273 8.57113 13.0367C8.57113 13.0391 8.57113 13.0414 8.57113 13.0438C8.53719 13.4905 8.39396 13.9221 8.15407 14.3006C7.91417 14.679 7.58494 14.9927 7.19535 15.2141C6.78931 15.4451 6.33008 15.5662 5.86293 15.5656C4.36254 15.5656 3.14653 14.3422 3.14653 12.8313C3.14653 11.3203 4.36254 10.0969 5.86293 10.0969C6.14695 10.0966 6.42922 10.1413 6.69926 10.2293L6.70316 6.95039C5.88339 6.8445 5.05056 6.90965 4.25722 7.14173C3.46388 7.37382 2.72725 7.7678 2.09379 8.29883C1.53874 8.78109 1.07211 9.35652 0.714887 9.99922C0.57895 10.2336 0.0660593 11.1754 0.00394994 12.7039C-0.0351125 13.5715 0.225434 14.4703 0.349653 14.8418V14.8496C0.427778 15.0684 0.730512 15.8148 1.22387 16.4441C1.6217 16.9489 2.09172 17.3924 2.61879 17.7602V17.7523L2.6266 17.7602C4.18559 18.8195 5.9141 18.75 5.9141 18.75C6.21332 18.7379 7.21566 18.75 8.35394 18.2105C9.61644 17.6125 10.3352 16.7215 10.3352 16.7215C10.7944 16.1891 11.1595 15.5824 11.4149 14.9273C11.7063 14.1613 11.8036 13.2426 11.8036 12.8754V6.26914C11.8426 6.29258 12.3629 6.63672 12.3629 6.63672C12.3629 6.63672 13.1125 7.11719 14.2821 7.43008C15.1211 7.65273 16.2516 7.69961 16.2516 7.69961V4.50273C15.8555 4.5457 15.0512 4.4207 14.2278 4.01016Z" fill="black"></path>
</svg>
