<svg width="60" height="85" viewBox="0 0 60 85" fill="none" xmlns="http://www.w3.org/2000/svg">
<g clip-path="url('#clip0_747_8945')">
<path d="M0 0.533203H7.51455L13.4309 16.8208L19.3367 0.533203H26.8619V37.6663H20.0882V10.611L15.3149 24.9332H11.547L6.7631 10.611V37.6663H0V0.533203Z" fill="white"></path>
<path d="M32.0691 19.0997C32.0691 6.62793 37.6574 0 46.5161 0C54.4117 0 58.8675 5.41525 60 12.1477L52.4219 13.4754C51.9351 9.0742 49.469 6.6802 46.2939 6.6802C43.1187 6.6802 39.2556 8.90693 39.2556 18.9325C39.2556 28.958 43.1822 31.5088 46.3997 31.5088C49.4055 31.5088 51.988 29.1775 52.4114 24.7136L59.9894 26.0413C58.9204 32.7842 54.4011 38.189 46.5056 38.189C37.6468 38.189 32.0586 31.5611 32.0586 19.0893" fill="white"></path>
<path d="M10.9014 66.7392C15.1455 63.3939 17.7809 61.2194 17.7809 57.9368C17.7809 55.0724 15.7382 53.5356 13.1663 53.5356C10.3193 53.5356 8.17074 55.1769 7.57804 59.369L0.317505 57.1946C1.22772 49.7721 6.81601 46.2073 13.2087 46.2073C19.6013 46.2073 25.3484 49.9708 25.3484 57.665C25.3484 64.5648 21.0513 67.9624 16.913 71.1404C12.7747 74.3289 10.6791 76.0225 9.87475 77.2979H25.7717V84.4067H0.963121C0.963121 76.1793 3.81018 72.3113 10.9014 66.7392Z" fill="white"></path>
<path d="M42.9176 61.5959C42.9176 58.8882 45.172 56.6615 47.9132 56.6615C50.6544 56.6615 52.9088 58.8882 52.9088 61.5959C52.9088 64.3035 50.7074 66.5302 47.9132 66.5302C45.1191 66.5302 42.9176 64.3035 42.9176 61.5959Z" fill="white"></path>
<path d="M42.9176 78.5734C42.9176 75.8658 45.172 73.639 47.9132 73.639C50.6544 73.639 52.9088 75.8658 52.9088 78.5734C52.9088 81.281 50.7074 83.5077 47.9132 83.5077C45.1191 83.5077 42.9176 81.281 42.9176 78.5734Z" fill="white"></path>
</g>
<defs>
<clipPath id="clip0_747_8945">
<rect width="60" height="84.4068" fill="white"></rect>
</clipPath>
</defs>
</svg>
