<svg width="101" height="142" viewBox="0 0 101 142" fill="none" xmlns="http://www.w3.org/2000/svg">
<path d="M0 0.896973H12.6495L22.6087 28.298L32.5502 0.896973H45.2175V63.3671H33.8151V17.8511L25.78 41.9458H19.4375L11.3845 17.8511V63.3671H0V0.896973Z" fill="#F7FE70"/>
<path d="M53.9831 32.132C53.9831 11.1504 63.39 0 78.3022 0C91.593 0 99.0937 9.11023 101 20.4365L88.2436 22.6701C87.424 15.2658 83.2729 11.2383 77.928 11.2383C72.5832 11.2383 66.0803 14.9844 66.0803 31.8506C66.0803 48.7169 72.6901 53.0082 78.1062 53.0082C83.166 53.0082 87.5131 49.0862 88.2258 41.5764L100.982 43.81C99.1827 55.1538 91.5752 64.2465 78.2843 64.2465C63.3722 64.2465 53.9652 53.0961 53.9652 32.1144" fill="#F7FE70"/>
<path d="M18.3507 112.277C25.495 106.649 29.9312 102.991 29.9312 97.4688C29.9312 92.6499 26.4927 90.0645 22.1633 90.0645C17.3708 90.0645 13.7541 92.8258 12.7564 99.8783L0.534485 96.2201C2.06668 83.7331 11.4736 77.7358 22.2346 77.7358C32.9956 77.7358 42.6698 84.0673 42.6698 97.0115C42.6698 108.619 35.4364 114.335 28.4703 119.682C21.5041 125.046 17.9765 127.895 16.6225 130.041H43.3824V142H1.62127C1.62127 128.159 6.41383 121.651 18.3507 112.277Z" fill="#F7FE70"/>
<path d="M72.2447 103.624C72.2447 99.0693 76.0395 95.3232 80.6539 95.3232C85.2683 95.3232 89.0631 99.0693 89.0631 103.624C89.0631 108.18 85.3574 111.926 80.6539 111.926C75.9504 111.926 72.2447 108.18 72.2447 103.624Z" fill="#F7FE70"/>
<path d="M72.2447 132.186C72.2447 127.631 76.0395 123.885 80.6539 123.885C85.2683 123.885 89.0631 127.631 89.0631 132.186C89.0631 136.741 85.3574 140.487 80.6539 140.487C75.9504 140.487 72.2447 136.741 72.2447 132.186Z" fill="#F7FE70"/>
</svg>
